<?xml version="1.0" encoding="utf-8"?>
<!-- Generator: Adobe Illustrator 22.0.0, SVG Export Plug-In . SVG Version: 6.00 Build 0)  -->
<svg version="1.1" xmlns="http://www.w3.org/2000/svg" xmlns:xlink="http://www.w3.org/1999/xlink" x="0px" y="0px"
	 viewBox="0 0 184.3 120.8" style="enable-background:new 0 0 184.3 120.8;" xml:space="preserve">
<style type="text/css">
	.st0{fill:#FFFFFF;}
	.st1{fill:#EE71A6;}
	.st2{fill:#43B149;}
	.st3{fill:#607CE2;}
	.st4{fill:none;stroke:#607CE2;stroke-width:6;stroke-linejoin:round;stroke-miterlimit:10;}
	.st5{fill:none;stroke:#607CE2;stroke-width:3;stroke-linejoin:round;stroke-miterlimit:10;}
	.st6{fill:none;stroke:#43B149;stroke-width:6;stroke-linejoin:round;stroke-miterlimit:10;}
	.st7{fill:none;stroke:#43B149;stroke-width:3;stroke-linejoin:round;stroke-miterlimit:10;}
	.st8{fill:none;stroke:#EE71A6;stroke-width:6;stroke-linejoin:round;stroke-miterlimit:10;}
	.st9{fill:none;stroke:#EE71A6;stroke-width:3;stroke-linejoin:round;stroke-miterlimit:10;}
	.st10{fill:#C65C5C;}
	.st11{fill:#ED7272;}
	.st12{fill:#647B91;}
	.st13{fill:#86A6BF;}
	.st14{fill:#FF7D7D;}
	.st15{fill:#3A6DED;}
	.st16{fill:#5CCCAE;}
	.st17{opacity:0.1;}
	.st18{fill:#FF6C6C;}
	.st19{fill:#E85858;}
	.st20{fill:#F4D6B0;}
	.st21{fill:#E0BB94;}
	.st22{fill:#ED6464;}
	.st23{fill:#FFC7B6;}
	.st24{fill:#FFE1CC;}
	.st25{fill:#5C5D64;}
	.st26{fill:#B77742;}
	.st27{fill:#DC9B80;}
	.st28{opacity:0.5;}
	.st29{fill:#726D6E;}
	.st30{fill:#F2F2F2;}
	.st31{fill:#FF8F8F;}
	.st32{fill:#FFB8B8;}
	.st33{fill:#E2E2E2;}
	.st34{fill:#F4F4F4;}
	.st35{fill:#FFB48F;}
	.st36{fill:#80B24D;}
	.st37{clip-path:url(#SVGID_2_);}
	.st38{fill:#FFE6D2;}
	.st39{clip-path:url(#SVGID_4_);}
	.st40{fill:#FFDEC0;}
	.st41{fill:#DDA373;}
	.st42{fill:#B77F51;}
	.st43{opacity:0.5;fill:#9E6E4A;}
	.st44{fill:#E29B61;}
	.st45{clip-path:url(#SVGID_6_);}
	.st46{clip-path:url(#SVGID_8_);}
	.st47{clip-path:url(#SVGID_10_);}
	.st48{clip-path:url(#SVGID_12_);}
	.st49{opacity:0.15;}
	.st50{fill:#FFBE1D;}
	.st51{fill:#EFAC16;}
	.st52{fill:#5E95E5;}
	.st53{fill:#55A2FF;}
	.st54{fill:#A3B8CC;}
	.st55{fill:#FF941F;}
	.st56{fill:#FD4335;}
	.st57{fill:#EE7013;}
	.st58{fill:#FDE8B5;}
	.st59{fill:#FFC600;}
	.st60{fill:#4A2F13;}
	.st61{fill:#81B925;}
	.st62{fill:#E49078;}
	.st63{fill:#EA9D88;}
	.st64{fill:#FFB39A;}
	.st65{fill:#333333;}
	.st66{fill:#E29700;}
	.st67{fill:#FFCC00;}
	.st68{fill:#C17B00;}
	.st69{fill:none;}
	.st70{fill:#418CC4;}
	.st71{fill:#55BCB2;}
	.st72{fill:#79E2D6;}
	.st73{fill:#FF4A65;}
	.st74{fill:#FAE0BB;}
	.st75{fill:#BA71E1;}
	.st76{fill:#FFCCFF;}
	.st77{fill:#EDB6EF;}
	.st78{fill:#EFD1BD;}
	.st79{fill:#FBB040;}
	.st80{fill:#353D42;}
	.st81{fill:#272223;}
	.st82{fill:#ACC4DD;}
	.st83{fill:#9097A0;}
	.st84{clip-path:url(#SVGID_14_);}
	.st85{fill:#F5BAF7;}
	.st86{fill:#DB7CE5;}
	.st87{fill:#9456BB;}
	.st88{clip-path:url(#SVGID_16_);}
	.st89{clip-path:url(#SVGID_18_);}
	.st90{clip-path:url(#SVGID_20_);}
	.st91{fill:#7643A1;}
	.st92{fill:#4F4F4F;}
	.st93{fill:#323232;}
	.st94{fill:#343434;}
	.st95{fill:#C4C4C4;}
	.st96{fill:#A5A5A5;}
	.st97{fill:#999999;}
	.st98{fill:#F2B19E;}
	.st99{fill:#DE866F;}
	.st100{fill:#65C8D0;}
	.st101{fill:#29ABE2;}
	.st102{fill:#E6E6E6;}
	.st103{fill:#42C162;}
	.st104{fill:#FFB817;}
	.st105{fill:#FED524;}
	.st106{fill:#212661;}
	.st107{fill:none;stroke:#FF2291;stroke-width:2;stroke-miterlimit:10;}
	.st108{fill:#FF2291;}
	.st109{fill:#55DFFF;}
	.st110{fill:#48B586;}
	.st111{fill:#FFCC4D;}
	.st112{fill:#FEC817;}
	.st113{fill:#DDA60B;}
	.st114{fill:#3DD1A0;}
	.st115{fill:#2FBC91;}
	.st116{fill:#27BDC9;}
	.st117{fill:#119093;}
	.st118{fill:#40D4E7;}
	.st119{fill:#83F6FF;}
	.st120{fill:#E5AE13;}
	.st121{fill:#3EC2CC;}
	.st122{fill:#68CBFC;}
	.st123{fill:#7D9DAF;}
	.st124{fill:#7CBEBF;}
	.st125{fill:#A5DEE5;}
	.st126{fill:#E5C45A;}
	.st127{fill:#D38E50;}
	.st128{fill:#BA7A45;}
	.st129{fill:#3A5460;}
	.st130{fill:#B7DCFF;}
	.st131{fill:#2B2829;}
	.st132{fill:#231F20;}
	.st133{fill:#808285;}
	.st134{fill:#EA7768;}
	.st135{fill:#FFC373;}
	.st136{fill:#CCCCCC;}
	.st137{fill:#292E3D;}
	.st138{fill:#2E3954;}
	.st139{fill:#9CDBB0;}
	.st140{fill:#146BAD;}
	.st141{fill:url(#);stroke:#146BAD;stroke-linejoin:round;}
	.st142{fill:#50DD99;}
	.st143{fill:#43BF8D;}
	.st144{fill:#314D84;}
	.st145{fill:#32A573;}
	.st146{fill:#6BCE8F;}
	.st147{fill:#FF3131;}
	.st148{fill:#E22B2B;}
	.st149{fill:#FFD41F;}
	.st150{fill:#643091;}
	.st151{fill:#D9204F;}
	.st152{fill:#FF4867;}
	.st153{fill:#FF7189;}
	.st154{fill:#C6EEFC;}
	.st155{fill:#F270AB;}
	.st156{fill:#5847BA;}
	.st157{fill:#312B6D;}
	.st158{fill:#A09F9F;}
	.st159{fill:#55CBFF;}
	.st160{fill:#2A2277;}
	.st161{fill:#FFDE55;}
	.st162{fill:#4C3020;}
	.st163{fill:#E0BE2D;}
	.st164{fill:#F4D451;}
	.st165{fill:#BBB0FF;}
	.st166{fill:#49417C;}
	.st167{fill:#948FD8;}
	.st168{fill:#A6A0F2;}
	.st169{fill:#C92B2B;}
	.st170{fill:#00CBBE;}
	.st171{fill:#F35850;}
	.st172{fill:#FFB800;}
	.st173{fill:#00BAA8;}
	.st174{fill:#EDA400;}
	.st175{fill:#E24844;}
	.st176{fill:#35516D;}
	.st177{fill:#663E77;}
	.st178{fill:#FF78A9;}
	.st179{fill:#4681BC;}
	.st180{fill:#664433;}
	.st181{fill-rule:evenodd;clip-rule:evenodd;fill:#664433;}
	.st182{fill:#382D63;}
	.st183{fill:#EA1818;}
	.st184{fill:#FFDD00;}
	.st185{fill-rule:evenodd;clip-rule:evenodd;fill:#333333;}
	.st186{fill-rule:evenodd;clip-rule:evenodd;fill:#FFFFFF;}
	.st187{fill:#2B7882;}
	.st188{fill:#94DBE0;}
	.st189{fill:#F77D66;}
	.st190{fill:#F27576;}
	.st191{fill:#71C6B0;}
	.st192{fill:#F05B5B;}
	.st193{fill:#1A6163;}
	.st194{fill:#FF5800;}
	.st195{fill:#FF9700;}
	.st196{fill:#FFF9C0;}
	.st197{fill:#294C29;}
	.st198{fill:#F2D34E;}
	.st199{fill:#5FD37D;}
	.st200{fill:#EE4D7A;}
	.st201{fill:#282F39;}
	.st202{fill:#324C6B;}
	.st203{fill:#3D1E27;}
	.st204{fill:#F0637A;}
	.st205{fill:#FDFCEA;}
	.st206{fill:#C1BCA4;}
	.st207{fill:#DDD9C3;}
	.st208{fill:#21363D;}
	.st209{fill:#F2D3A5;}
	.st210{fill:#FFB444;}
	.st211{fill:#591C1C;}
	.st212{fill:#FFE6C5;}
	.st213{fill:#933434;}
	.st214{enable-background:new    ;}
	.st215{fill:#D8D8AD;}
	.st216{fill:#2F6257;}
	.st217{fill:#AFAF8C;}
	.st218{fill:#408677;}
	.st219{fill:#808066;}
	.st220{clip-path:url(#SVGID_22_);enable-background:new    ;}
	.st221{fill:#31665A;}
	.st222{clip-path:url(#SVGID_24_);enable-background:new    ;}
	.st223{fill:#85856A;}
	.st224{fill:#8A8A6E;}
	.st225{fill:#8F8F72;}
	.st226{fill:#949476;}
	.st227{fill:#99997A;}
	.st228{fill:#9E9E7E;}
	.st229{fill:#A3A383;}
	.st230{fill:#A8A887;}
	.st231{fill:#ADAD8B;}
	.st232{clip-path:url(#SVGID_26_);enable-background:new    ;}
	.st233{clip-path:url(#SVGID_28_);enable-background:new    ;}
	.st234{clip-path:url(#SVGID_30_);enable-background:new    ;}
	.st235{fill:#336A5E;}
	.st236{fill:#356E61;}
	.st237{fill:#377265;}
	.st238{fill:#387668;}
	.st239{fill:#3A7A6C;}
	.st240{fill:#3C7D6F;}
	.st241{fill:#3E8173;}
	.st242{fill:#408576;}
	.st243{clip-path:url(#SVGID_32_);enable-background:new    ;}
	.st244{clip-path:url(#SVGID_34_);enable-background:new    ;}
	.st245{clip-path:url(#SVGID_36_);enable-background:new    ;}
	.st246{fill:#2F6358;}
	.st247{clip-path:url(#SVGID_38_);enable-background:new    ;}
	.st248{clip-path:url(#SVGID_40_);enable-background:new    ;}
	.st249{clip-path:url(#SVGID_42_);enable-background:new    ;}
	.st250{clip-path:url(#SVGID_44_);enable-background:new    ;}
	.st251{clip-path:url(#SVGID_46_);enable-background:new    ;}
	.st252{fill:#818167;}
	.st253{fill:#A6A685;}
	.st254{fill:#418878;}
	.st255{fill:#3D8071;}
	.st256{fill:#3D7F70;}
	.st257{fill:#A5A584;}
	.st258{fill:#3D7F71;}
	.st259{fill:#418778;}
	.st260{fill:#B0B08D;}
	.st261{clip-path:url(#SVGID_48_);enable-background:new    ;}
	.st262{clip-path:url(#SVGID_50_);enable-background:new    ;}
	.st263{clip-path:url(#SVGID_52_);enable-background:new    ;}
	.st264{clip-path:url(#SVGID_54_);enable-background:new    ;}
	.st265{clip-path:url(#SVGID_56_);enable-background:new    ;}
	.st266{clip-path:url(#SVGID_58_);enable-background:new    ;}
	.st267{clip-path:url(#SVGID_60_);enable-background:new    ;}
	.st268{clip-path:url(#SVGID_62_);enable-background:new    ;}
	.st269{clip-path:url(#SVGID_64_);enable-background:new    ;}
	.st270{clip-path:url(#SVGID_66_);enable-background:new    ;}
	.st271{clip-path:url(#SVGID_68_);enable-background:new    ;}
	.st272{clip-path:url(#SVGID_70_);enable-background:new    ;}
	.st273{clip-path:url(#SVGID_72_);enable-background:new    ;}
	.st274{clip-path:url(#SVGID_74_);enable-background:new    ;}
	.st275{clip-path:url(#SVGID_76_);enable-background:new    ;}
	.st276{clip-path:url(#SVGID_78_);enable-background:new    ;}
	.st277{clip-path:url(#SVGID_80_);enable-background:new    ;}
	.st278{clip-path:url(#SVGID_82_);enable-background:new    ;}
	.st279{clip-path:url(#SVGID_84_);enable-background:new    ;}
	.st280{clip-path:url(#SVGID_86_);enable-background:new    ;}
	.st281{fill:#306459;}
	.st282{clip-path:url(#SVGID_88_);enable-background:new    ;}
	.st283{clip-path:url(#SVGID_90_);enable-background:new    ;}
	.st284{clip-path:url(#SVGID_92_);enable-background:new    ;}
	.st285{clip-path:url(#SVGID_94_);enable-background:new    ;}
	.st286{clip-path:url(#SVGID_96_);enable-background:new    ;}
	.st287{clip-path:url(#SVGID_98_);enable-background:new    ;}
	.st288{clip-path:url(#SVGID_100_);enable-background:new    ;}
	.st289{fill:#2F2A4C;}
	.st290{fill:#E8A000;}
	.st291{fill:#FFDE94;}
	.st292{fill:#4C417A;}
	.st293{fill:#574E87;}
	.st294{fill:#8680BC;}
	.st295{fill:#564D87;}
	.st296{fill:#2E2459;}
	.st297{fill:#51E0E0;}
	.st298{fill:none;stroke:#FFB800;stroke-width:2;stroke-linejoin:round;stroke-miterlimit:10;}
	.st299{fill:#1D9947;}
	.st300{fill:#C2C4C6;}
	.st301{fill:#8C6239;}
	.st302{fill:#EC9B47;}
	.st303{fill:#CC966A;}
	.st304{fill:#422F20;}
	.st305{fill:#AE8162;}
	.st306{fill:#9B6B4B;}
	.st307{fill:#414042;}
	.st308{fill:#58595B;}
	.st309{fill:#BCBEC0;}
	.st310{fill:#DD4A4A;}
	.st311{fill:#9B6C4C;}
	.st312{fill:#E6E7E8;}
	.st313{fill-rule:evenodd;clip-rule:evenodd;fill:#231F20;}
	.st314{fill-rule:evenodd;clip-rule:evenodd;fill:#FFCA05;}
	.st315{clip-path:url(#SVGID_102_);fill-rule:evenodd;clip-rule:evenodd;fill:#D1A51E;}
	.st316{clip-path:url(#SVGID_104_);fill-rule:evenodd;clip-rule:evenodd;fill:#D1A51E;}
	.st317{clip-path:url(#SVGID_106_);fill-rule:evenodd;clip-rule:evenodd;fill:#D1A51E;}
	.st318{clip-path:url(#SVGID_108_);fill-rule:evenodd;clip-rule:evenodd;fill:#D1A51E;}
	.st319{clip-path:url(#SVGID_110_);fill-rule:evenodd;clip-rule:evenodd;fill:#D1A51E;}
	.st320{clip-path:url(#SVGID_112_);fill-rule:evenodd;clip-rule:evenodd;fill:#D1A51E;}
	.st321{clip-path:url(#SVGID_118_);fill-rule:evenodd;clip-rule:evenodd;fill:#D1A51E;}
	.st322{clip-path:url(#SVGID_120_);fill-rule:evenodd;clip-rule:evenodd;fill:#D1A51E;}
	.st323{clip-path:url(#SVGID_122_);fill-rule:evenodd;clip-rule:evenodd;fill:#D1A51E;}
	.st324{clip-path:url(#SVGID_124_);fill-rule:evenodd;clip-rule:evenodd;fill:#D1A51E;}
	.st325{clip-path:url(#SVGID_126_);fill-rule:evenodd;clip-rule:evenodd;fill:#D1A51E;}
	.st326{clip-path:url(#SVGID_128_);fill-rule:evenodd;clip-rule:evenodd;fill:#D1A51E;}
	.st327{clip-path:url(#SVGID_134_);fill-rule:evenodd;clip-rule:evenodd;fill:#D1A51E;}
	.st328{clip-path:url(#SVGID_136_);fill-rule:evenodd;clip-rule:evenodd;fill:#D1A51E;}
	.st329{clip-path:url(#SVGID_138_);fill-rule:evenodd;clip-rule:evenodd;fill:#D1A51E;}
	.st330{clip-path:url(#SVGID_140_);fill-rule:evenodd;clip-rule:evenodd;fill:#D1A51E;}
	.st331{clip-path:url(#SVGID_142_);fill-rule:evenodd;clip-rule:evenodd;fill:#D1A51E;}
	.st332{clip-path:url(#SVGID_144_);fill-rule:evenodd;clip-rule:evenodd;fill:#D1A51E;}
	.st333{clip-path:url(#SVGID_150_);fill-rule:evenodd;clip-rule:evenodd;fill:#D1A51E;}
	.st334{clip-path:url(#SVGID_152_);fill-rule:evenodd;clip-rule:evenodd;fill:#D1A51E;}
	.st335{clip-path:url(#SVGID_154_);fill-rule:evenodd;clip-rule:evenodd;fill:#D1A51E;}
	.st336{clip-path:url(#SVGID_156_);fill-rule:evenodd;clip-rule:evenodd;fill:#D1A51E;}
	.st337{clip-path:url(#SVGID_158_);fill-rule:evenodd;clip-rule:evenodd;fill:#D1A51E;}
	.st338{clip-path:url(#SVGID_160_);fill-rule:evenodd;clip-rule:evenodd;fill:#D1A51E;}
	.st339{fill:#423275;}
	.st340{clip-path:url(#SVGID_166_);enable-background:new    ;}
	.st341{clip-path:url(#SVGID_168_);enable-background:new    ;}
	.st342{clip-path:url(#SVGID_170_);enable-background:new    ;}
	.st343{clip-path:url(#SVGID_172_);enable-background:new    ;}
	.st344{clip-path:url(#SVGID_174_);enable-background:new    ;}
	.st345{clip-path:url(#SVGID_176_);enable-background:new    ;}
	.st346{clip-path:url(#SVGID_178_);enable-background:new    ;}
	.st347{clip-path:url(#SVGID_180_);enable-background:new    ;}
	.st348{clip-path:url(#SVGID_182_);enable-background:new    ;}
	.st349{clip-path:url(#SVGID_184_);enable-background:new    ;}
	.st350{clip-path:url(#SVGID_186_);enable-background:new    ;}
	.st351{clip-path:url(#SVGID_188_);enable-background:new    ;}
	.st352{clip-path:url(#SVGID_190_);enable-background:new    ;}
	.st353{clip-path:url(#SVGID_192_);enable-background:new    ;}
	.st354{clip-path:url(#SVGID_194_);enable-background:new    ;}
	.st355{clip-path:url(#SVGID_196_);enable-background:new    ;}
	.st356{clip-path:url(#SVGID_198_);enable-background:new    ;}
	.st357{clip-path:url(#SVGID_200_);enable-background:new    ;}
	.st358{clip-path:url(#SVGID_202_);enable-background:new    ;}
	.st359{clip-path:url(#SVGID_204_);enable-background:new    ;}
	.st360{clip-path:url(#SVGID_206_);enable-background:new    ;}
	.st361{clip-path:url(#SVGID_208_);enable-background:new    ;}
	.st362{clip-path:url(#SVGID_210_);enable-background:new    ;}
	.st363{clip-path:url(#SVGID_212_);enable-background:new    ;}
	.st364{clip-path:url(#SVGID_214_);enable-background:new    ;}
	.st365{clip-path:url(#SVGID_216_);enable-background:new    ;}
	.st366{clip-path:url(#SVGID_218_);enable-background:new    ;}
	.st367{clip-path:url(#SVGID_220_);enable-background:new    ;}
	.st368{clip-path:url(#SVGID_222_);enable-background:new    ;}
	.st369{clip-path:url(#SVGID_224_);enable-background:new    ;}
	.st370{clip-path:url(#SVGID_226_);enable-background:new    ;}
	.st371{clip-path:url(#SVGID_228_);enable-background:new    ;}
	.st372{clip-path:url(#SVGID_230_);enable-background:new    ;}
	.st373{clip-path:url(#SVGID_232_);enable-background:new    ;}
	.st374{clip-path:url(#SVGID_234_);enable-background:new    ;}
	.st375{clip-path:url(#SVGID_236_);enable-background:new    ;}
	.st376{clip-path:url(#SVGID_238_);enable-background:new    ;}
	.st377{clip-path:url(#SVGID_240_);enable-background:new    ;}
	.st378{clip-path:url(#SVGID_242_);enable-background:new    ;}
	.st379{clip-path:url(#SVGID_244_);enable-background:new    ;}
	.st380{clip-path:url(#SVGID_246_);enable-background:new    ;}
	.st381{clip-path:url(#SVGID_248_);enable-background:new    ;}
	.st382{clip-path:url(#SVGID_250_);enable-background:new    ;}
	.st383{clip-path:url(#SVGID_252_);enable-background:new    ;}
	.st384{clip-path:url(#SVGID_254_);enable-background:new    ;}
	.st385{clip-path:url(#SVGID_256_);enable-background:new    ;}
	.st386{clip-path:url(#SVGID_258_);enable-background:new    ;}
	.st387{clip-path:url(#SVGID_260_);enable-background:new    ;}
	.st388{clip-path:url(#SVGID_262_);enable-background:new    ;}
	.st389{clip-path:url(#SVGID_264_);enable-background:new    ;}
	.st390{clip-path:url(#SVGID_266_);enable-background:new    ;}
	.st391{clip-path:url(#SVGID_268_);enable-background:new    ;}
	.st392{clip-path:url(#SVGID_270_);enable-background:new    ;}
	.st393{clip-path:url(#SVGID_272_);enable-background:new    ;}
	.st394{clip-path:url(#SVGID_274_);enable-background:new    ;}
	.st395{clip-path:url(#SVGID_276_);enable-background:new    ;}
	.st396{clip-path:url(#SVGID_278_);enable-background:new    ;}
	.st397{clip-path:url(#SVGID_280_);enable-background:new    ;}
	.st398{clip-path:url(#SVGID_282_);enable-background:new    ;}
	.st399{clip-path:url(#SVGID_284_);enable-background:new    ;}
	.st400{clip-path:url(#SVGID_286_);enable-background:new    ;}
	.st401{clip-path:url(#SVGID_288_);enable-background:new    ;}
	.st402{clip-path:url(#SVGID_290_);enable-background:new    ;}
	.st403{clip-path:url(#SVGID_292_);enable-background:new    ;}
	.st404{clip-path:url(#SVGID_294_);enable-background:new    ;}
	.st405{clip-path:url(#SVGID_296_);enable-background:new    ;}
	.st406{clip-path:url(#SVGID_298_);enable-background:new    ;}
	.st407{clip-path:url(#SVGID_300_);enable-background:new    ;}
	.st408{clip-path:url(#SVGID_302_);enable-background:new    ;}
	.st409{clip-path:url(#SVGID_304_);enable-background:new    ;}
	.st410{clip-path:url(#SVGID_306_);enable-background:new    ;}
	.st411{clip-path:url(#SVGID_308_);enable-background:new    ;}
	.st412{clip-path:url(#SVGID_310_);enable-background:new    ;}
	.st413{clip-path:url(#SVGID_312_);enable-background:new    ;}
	.st414{clip-path:url(#SVGID_314_);enable-background:new    ;}
	.st415{clip-path:url(#SVGID_316_);enable-background:new    ;}
	.st416{clip-path:url(#SVGID_318_);enable-background:new    ;}
	.st417{clip-path:url(#SVGID_320_);enable-background:new    ;}
	.st418{clip-path:url(#SVGID_322_);enable-background:new    ;}
	.st419{clip-path:url(#SVGID_324_);enable-background:new    ;}
	.st420{clip-path:url(#SVGID_326_);enable-background:new    ;}
	.st421{clip-path:url(#SVGID_328_);enable-background:new    ;}
	.st422{clip-path:url(#SVGID_330_);enable-background:new    ;}
	.st423{clip-path:url(#SVGID_332_);enable-background:new    ;}
	.st424{clip-path:url(#SVGID_334_);enable-background:new    ;}
	.st425{clip-path:url(#SVGID_336_);enable-background:new    ;}
	.st426{clip-path:url(#SVGID_338_);enable-background:new    ;}
	.st427{clip-path:url(#SVGID_340_);enable-background:new    ;}
	.st428{clip-path:url(#SVGID_342_);enable-background:new    ;}
	.st429{clip-path:url(#SVGID_344_);enable-background:new    ;}
	.st430{clip-path:url(#SVGID_346_);enable-background:new    ;}
	.st431{clip-path:url(#SVGID_348_);enable-background:new    ;}
	.st432{clip-path:url(#SVGID_350_);enable-background:new    ;}
	.st433{clip-path:url(#SVGID_352_);enable-background:new    ;}
	.st434{clip-path:url(#SVGID_354_);enable-background:new    ;}
	.st435{clip-path:url(#SVGID_356_);enable-background:new    ;}
	.st436{clip-path:url(#SVGID_358_);enable-background:new    ;}
	.st437{clip-path:url(#SVGID_360_);enable-background:new    ;}
	.st438{clip-path:url(#SVGID_362_);enable-background:new    ;}
	.st439{clip-path:url(#SVGID_364_);enable-background:new    ;}
	.st440{clip-path:url(#SVGID_366_);enable-background:new    ;}
	.st441{clip-path:url(#SVGID_368_);enable-background:new    ;}
	.st442{clip-path:url(#SVGID_370_);enable-background:new    ;}
	.st443{clip-path:url(#SVGID_372_);enable-background:new    ;}
	.st444{clip-path:url(#SVGID_374_);enable-background:new    ;}
	.st445{clip-path:url(#SVGID_376_);enable-background:new    ;}
	.st446{clip-path:url(#SVGID_378_);enable-background:new    ;}
	.st447{clip-path:url(#SVGID_380_);enable-background:new    ;}
	.st448{clip-path:url(#SVGID_382_);enable-background:new    ;}
	.st449{clip-path:url(#SVGID_384_);enable-background:new    ;}
	.st450{clip-path:url(#SVGID_386_);enable-background:new    ;}
	.st451{clip-path:url(#SVGID_388_);enable-background:new    ;}
	.st452{clip-path:url(#SVGID_390_);enable-background:new    ;}
	.st453{clip-path:url(#SVGID_392_);enable-background:new    ;}
	.st454{clip-path:url(#SVGID_394_);enable-background:new    ;}
	.st455{clip-path:url(#SVGID_396_);enable-background:new    ;}
	.st456{clip-path:url(#SVGID_398_);enable-background:new    ;}
	.st457{clip-path:url(#SVGID_400_);enable-background:new    ;}
	.st458{clip-path:url(#SVGID_402_);enable-background:new    ;}
	.st459{clip-path:url(#SVGID_404_);enable-background:new    ;}
	.st460{fill:#FFC200;}
	.st461{fill:#FF9100;}
	.st462{fill:#FFF8E5;}
	.st463{fill:#EF714B;}
	.st464{fill:#CFB394;}
	.st465{fill:#0B0A06;}
	.st466{fill:#5552DB;}
	.st467{fill:#FFC0E3;}
	.st468{fill:#735CAA;}
	.st469{fill:#12B5DB;}
	.st470{fill:#FF2C6D;}
	.st471{fill:#FF0000;}
</style>
<g id="Layer_1">
	<g>
		<g>
			<g>
				<g>
					<path class="st112" d="M21.6,88.6c0.1-1.3,0.3-2.5,0.4-3.6L9.1,90.2c0,0,4.1,24.5,14.3,30.2c0.8,0.5,1.8,0.6,2.8,0.4
						c0,0,5.4-1.5,6.1-3.9c-0.1-0.9-0.4-1.9-1.1-2.6C29.7,112.5,20.2,102.6,21.6,88.6z"/>
					<path class="st113" d="M25,83.9L22,85.1c-0.1,1.1-0.2,2.2-0.4,3.6c-1.4,14,8.1,23.8,9.6,25.6c0.6,0.7,0.9,1.7,1.1,2.6
						c0.5-1,1-2.3,1.2-3.7C33.9,109,22.6,103.7,25,83.9z"/>
				</g>
				<g>
					<path class="st114" d="M69.3,99.9l-8.2-66c0,0-16.5,14.4-34.2,24.3c-7.6,15,0.3,28.5,3.5,32.9C43.3,90.9,58.7,92.3,69.3,99.9z"
						/>
					<path class="st115" d="M26.9,58.2c-7.4,4.2-15,7.5-21.7,8.8c-1.7,0.3-3,1.4-3.6,3C-0.1,74.2-2,82.9,4.9,90.9
						c1,1.1,2.4,1.7,3.8,1.7c3.7-0.2,12-1.2,21.6-1.4C27.2,86.7,19.2,73.2,26.9,58.2z"/>
				</g>
				
					<ellipse transform="matrix(0.9878 -0.1558 0.1558 0.9878 -9.5558 11.7297)" class="st116" cx="70" cy="66.8" rx="16.1" ry="34.9"/>
				<path class="st117" d="M86.5,68.5c-0.3-1.9-1-3.7-1.4-5.5c-0.3-1.3-0.7-2.4-1.2-3.5c-0.4,0.6-1.1,1-1.7,1.2
					c-0.1,0-0.2,0.1-0.3,0.1L74,70.1c-0.9,1-0.4,2.9,1.2,2.9L84,72c0.7,1.3,2,3.7,2.9,4.7C87,75.7,86.7,69.9,86.5,68.5z"/>
				<path class="st117" d="M58.8,85.9l12.1-8.4c0,0,3-3.6,0-14l-16.3,8.6C54.6,72.2,56.4,81.1,58.8,85.9z"/>
				<path class="st118" d="M68.6,75.8l-2.2-17.9l-13.2-2c-0.1,4.2,0.1,8.8,0.9,13.5c0.7,4.6,1.8,9,3.2,12.9L68.6,75.8z"/>
				
					<ellipse transform="matrix(0.9878 -0.1558 0.1558 0.9878 -9.5909 11.2824)" class="st119" cx="67.2" cy="66.8" rx="4.2" ry="9.1"/>
			</g>
			<g>
				<path class="st120" d="M184.2,57.4l-4-42.1c-1-10.1-9.9-16.8-19.7-15l-65,13.1c-5.6,1.1-9.8,6.3-10.8,12.6
					c-0.2,1.1-1.1,23.4-1.6,33.7l-9.2,10.7c-0.9,1.1,0,2.6,1.4,2.4l9.5-1.5c2.5,4.8,7,8.1,12.1,7.8l71-2.8
					C177.7,76.1,185.2,67.5,184.2,57.4z"/>
				<path class="st50" d="M181.3,56.8l-3.9-41.7c-0.9-10-9.7-16.7-19.1-14.8l-63.3,13c-5.5,1.1-9.6,6.2-10.5,12.5
					c-0.2,1.1-1.1,23.1-1.5,33.4l-9,10.6c-0.9,1,0,2.6,1.4,2.4l9.3-1.4c2.4,4.8,6.9,8,11.7,7.8l69.1-2.8
					C174.9,75.3,182.2,66.8,181.3,56.8z"/>
				<g>
					<g>
						<path class="st0" d="M102.1,40.4l7.6-1.6l0.1,3l-11,2.1l-0.4-18.9l3.4-0.9L102.1,40.4z"/>
						<path class="st0" d="M117.3,25.7c0.9-0.2,1.8-0.3,2.6-0.2c0.8,0.1,1.5,0.4,2.1,0.8c0.6,0.4,1.1,1,1.4,1.8
							c0.3,0.8,0.5,1.7,0.6,2.7c0,0.3,0,0.5,0,0.7c0,0.2-0.1,0.3-0.1,0.5c-0.1,0.1-0.2,0.2-0.3,0.3c-0.1,0.1-0.3,0.1-0.4,0.2l-9.2,2
							c0.1,1.4,0.6,2.4,1.3,3c0.7,0.5,1.7,0.7,2.8,0.5c0.6-0.1,1.1-0.3,1.5-0.5c0.4-0.2,0.8-0.4,1.1-0.7c0.3-0.2,0.6-0.4,0.8-0.6
							c0.2-0.2,0.5-0.3,0.7-0.3c0.1,0,0.3,0,0.4,0c0.1,0,0.2,0.1,0.3,0.2l1.1,1.1c-0.4,0.5-0.9,1-1.4,1.4c-0.5,0.4-1,0.8-1.6,1.1
							c-0.5,0.3-1.1,0.5-1.7,0.7c-0.6,0.2-1.1,0.3-1.6,0.4c-1,0.2-2,0.2-2.9,0c-0.9-0.2-1.6-0.5-2.3-1c-0.6-0.5-1.1-1.2-1.5-2.1
							c-0.4-0.9-0.6-1.9-0.6-3.2c0-1,0.1-1.9,0.4-2.8c0.3-0.9,0.7-1.8,1.3-2.5c0.6-0.8,1.3-1.5,2.1-2
							C115.2,26.4,116.2,26,117.3,25.7z M117.4,28.2c-1,0.3-1.8,0.7-2.4,1.4c-0.6,0.7-0.9,1.6-1.1,2.7l6.7-1.5
							c0-0.5-0.1-0.9-0.2-1.3c-0.1-0.4-0.3-0.7-0.6-0.9c-0.3-0.2-0.6-0.4-1-0.5C118.4,28,118,28,117.4,28.2z"/>
						<path class="st0" d="M132.6,37.7c-1.4,0.3-2.5,0.1-3.3-0.5c-0.8-0.6-1.2-1.5-1.2-2.9L128,26l-1.6,0.4c-0.2,0-0.4,0-0.5-0.1
							c-0.2-0.1-0.2-0.3-0.2-0.5l0-1.4l2.6-1l0.7-4.3c0-0.2,0.1-0.4,0.3-0.5c0.2-0.1,0.3-0.3,0.6-0.3l2-0.6l0.1,4.8l4.4-1.1l0.1,2.7
							l-4.4,1.1l0.2,8.3c0,0.5,0.1,0.8,0.4,1c0.3,0.2,0.6,0.3,1,0.2c0.3-0.1,0.5-0.1,0.6-0.2c0.2-0.1,0.3-0.2,0.4-0.3
							c0.1-0.1,0.2-0.2,0.3-0.2c0.1-0.1,0.2-0.1,0.3-0.1c0.1,0,0.2,0,0.3,0c0.1,0,0.2,0.1,0.3,0.2l1.3,1.6c-0.6,0.6-1.3,1.1-2,1.4
							C134.2,37.3,133.4,37.6,132.6,37.7z"/>
						<path class="st0" d="M142.5,11.7c0.4,0.5,0.7,1,0.9,1.5c0.2,0.5,0.3,1.1,0.3,1.7c0,1-0.3,2.1-0.8,3.2
							c-0.6,1.1-1.4,2.2-2.5,3.2l-1.3-0.4c-0.1,0-0.2-0.1-0.2-0.2c0-0.1-0.1-0.2-0.1-0.2c0-0.2,0.1-0.4,0.2-0.5
							c0.1-0.2,0.3-0.4,0.5-0.6c0.2-0.2,0.3-0.5,0.4-0.8c0.1-0.3,0.2-0.6,0.3-0.9c0.1-0.3,0.1-0.6,0.1-1c0-0.4-0.1-0.7-0.2-1.1
							c-0.1-0.4-0.4-0.7-0.7-1.1c-0.1-0.1-0.2-0.2-0.2-0.4c0-0.3,0.2-0.6,0.6-0.9L142.5,11.7z"/>
						<path class="st0" d="M159.1,18.7c-0.1,0.2-0.3,0.4-0.4,0.5c-0.1,0.1-0.3,0.2-0.5,0.2c-0.2,0.1-0.5,0.1-0.8,0
							c-0.3,0-0.6-0.1-0.9-0.1c-0.3-0.1-0.7-0.1-1.2-0.1c-0.4,0-1,0.1-1.6,0.2c-0.9,0.2-1.6,0.6-2.2,1c-0.5,0.5-0.8,1-0.8,1.5
							c0,0.4,0.1,0.6,0.4,0.8c0.3,0.2,0.6,0.3,1.1,0.4c0.4,0.1,1,0.1,1.5,0.1c0.6,0,1.2,0,1.8,0.1c0.6,0,1.2,0.1,1.8,0.2
							c0.6,0.1,1.1,0.3,1.6,0.5c0.5,0.2,0.9,0.6,1.1,1c0.3,0.4,0.4,1,0.5,1.7c0,0.8-0.1,1.6-0.5,2.4c-0.3,0.8-0.8,1.5-1.5,2.1
							c-0.7,0.6-1.5,1.2-2.5,1.7c-1,0.5-2.1,0.8-3.3,1.1c-0.7,0.1-1.3,0.2-1.9,0.2c-0.6,0-1.2,0-1.8-0.1c-0.6-0.1-1.1-0.2-1.6-0.3
							c-0.5-0.1-0.9-0.3-1.3-0.5l1-1.7c0.1-0.2,0.3-0.4,0.5-0.5c0.2-0.1,0.4-0.2,0.7-0.3c0.3-0.1,0.5,0,0.8,0
							c0.3,0.1,0.5,0.2,0.9,0.3c0.3,0.1,0.7,0.2,1.2,0.2c0.5,0,1,0,1.7-0.1c0.6-0.1,1-0.3,1.4-0.5c0.4-0.2,0.7-0.4,1-0.6
							c0.3-0.2,0.4-0.5,0.6-0.8c0.1-0.3,0.2-0.5,0.2-0.8c0-0.4-0.2-0.7-0.4-0.9c-0.3-0.2-0.6-0.3-1.1-0.4c-0.5-0.1-1-0.1-1.5-0.2
							c-0.6,0-1.2-0.1-1.7-0.1c-0.6,0-1.2-0.1-1.7-0.2c-0.6-0.1-1.1-0.3-1.5-0.5c-0.4-0.3-0.8-0.6-1.1-1.1c-0.3-0.4-0.4-1-0.4-1.7
							c0-0.7,0.1-1.3,0.4-2c0.3-0.7,0.7-1.3,1.3-1.9c0.6-0.6,1.3-1.1,2.2-1.6c0.9-0.5,1.9-0.9,3.1-1.2c1.3-0.3,2.6-0.5,3.7-0.4
							c1.1,0.1,2.1,0.4,2.9,0.8L159.1,18.7z"/>
						<path class="st0" d="M112.2,62.8c0.2,0,0.4,0,0.5,0.2l1.5,1.5c-0.8,1.1-1.8,1.9-3,2.5c-1.2,0.6-2.5,0.9-4.1,1
							c-1.4,0.1-2.7-0.1-3.8-0.5c-1.1-0.4-2-1-2.8-1.8c-0.8-0.8-1.4-1.8-1.8-2.9c-0.4-1.1-0.6-2.4-0.7-3.8c0-1.4,0.2-2.7,0.6-4
							c0.4-1.2,1-2.3,1.8-3.3c0.8-1,1.8-1.8,2.9-2.4c1.2-0.6,2.5-1.1,3.9-1.3c1.4-0.2,2.7-0.1,3.8,0.2c1.1,0.3,2.1,0.8,2.9,1.5
							l-1.2,1.9c-0.1,0.1-0.2,0.2-0.3,0.3c-0.1,0.1-0.3,0.2-0.5,0.2c-0.2,0-0.4,0-0.7-0.2c-0.2-0.1-0.5-0.3-0.8-0.4
							c-0.3-0.2-0.8-0.3-1.3-0.4c-0.5-0.1-1.2-0.1-1.9,0c-0.9,0.1-1.7,0.4-2.5,0.8c-0.7,0.4-1.4,0.9-1.9,1.6
							c-0.5,0.6-0.9,1.4-1.2,2.3c-0.3,0.9-0.4,1.8-0.4,2.9c0,1.1,0.2,2,0.5,2.8c0.3,0.8,0.7,1.5,1.2,2c0.5,0.5,1.1,0.9,1.8,1.2
							c0.7,0.3,1.5,0.4,2.3,0.3c0.5,0,0.9-0.1,1.3-0.2c0.4-0.1,0.8-0.2,1.1-0.3c0.3-0.1,0.7-0.3,1-0.5c0.3-0.2,0.6-0.5,0.9-0.8
							c0.1-0.1,0.2-0.2,0.3-0.2C112,62.8,112.1,62.8,112.2,62.8z"/>
						<path class="st0" d="M117,67.2l-0.4-20.9l3.6-0.5l0.2,8.2c0.6-0.6,1.2-1.1,1.9-1.5c0.7-0.4,1.6-0.7,2.5-0.8
							c0.9-0.1,1.6,0,2.3,0.2c0.7,0.2,1.3,0.5,1.7,1c0.5,0.5,0.8,1,1.1,1.7c0.3,0.7,0.4,1.4,0.4,2.3l0.2,9.7l-3.9,0.2l-0.2-9.5
							c0-0.9-0.3-1.6-0.7-2.1c-0.5-0.5-1.1-0.6-2-0.5c-0.6,0.1-1.2,0.3-1.8,0.6c-0.6,0.3-1.1,0.8-1.6,1.3l0.2,10.6L117,67.2z"/>
						<path class="st0" d="M148.3,65.5l-2,0.1c-0.4,0-0.7,0-1-0.1c-0.2-0.1-0.4-0.3-0.5-0.6l-0.4-1.1c-0.5,0.4-0.9,0.7-1.3,1
							c-0.4,0.3-0.9,0.6-1.3,0.8c-0.5,0.2-0.9,0.4-1.5,0.5c-0.5,0.1-1.1,0.2-1.7,0.2c-0.7,0-1.4,0-2-0.2c-0.6-0.1-1.1-0.4-1.6-0.7
							c-0.4-0.3-0.8-0.7-1-1.3c-0.2-0.5-0.4-1.1-0.4-1.8c0-0.6,0.1-1.2,0.5-1.8c0.3-0.6,0.9-1.2,1.6-1.7c0.8-0.5,1.8-1,3.1-1.4
							c1.3-0.4,3-0.7,5.1-0.9l0-0.9c0-1.1-0.3-1.9-0.8-2.3c-0.5-0.5-1.3-0.6-2.2-0.5c-0.7,0.1-1.3,0.2-1.7,0.4
							c-0.5,0.2-0.8,0.4-1.2,0.6c-0.3,0.2-0.6,0.4-0.9,0.6c-0.3,0.2-0.6,0.3-0.9,0.3c-0.3,0-0.5,0-0.7-0.1c-0.2-0.1-0.4-0.3-0.5-0.4
							l-0.8-1.1c1.9-1.8,4.3-2.9,7.1-3.3c1-0.1,2-0.1,2.8,0.1c0.8,0.2,1.6,0.6,2.2,1c0.6,0.5,1.1,1.1,1.4,1.8
							c0.3,0.7,0.5,1.6,0.5,2.5L148.3,65.5z M139.8,63.6c0.4,0,0.8-0.1,1.2-0.2c0.4-0.1,0.7-0.2,1-0.4c0.3-0.2,0.6-0.4,0.9-0.6
							c0.3-0.2,0.6-0.5,0.9-0.8l-0.1-2.7c-1.3,0.1-2.3,0.3-3.1,0.5c-0.8,0.2-1.5,0.4-2,0.7c-0.5,0.3-0.8,0.5-1,0.8
							c-0.2,0.3-0.3,0.6-0.3,1c0,0.7,0.2,1.1,0.7,1.4C138.5,63.5,139.1,63.6,139.8,63.6z"/>
						<path class="st0" d="M159.3,65.1c-1.7,0.1-3.1-0.2-4-1c-0.9-0.8-1.4-1.9-1.4-3.3l-0.2-9.3l-2,0.2c-0.2,0-0.5,0-0.6-0.1
							c-0.2-0.1-0.3-0.3-0.3-0.6l0-1.6l3.1-0.8l0.9-4.7c0-0.2,0.2-0.4,0.3-0.5c0.2-0.1,0.4-0.2,0.7-0.3l2.5-0.3l0.1,5.3l5.4-0.6
							l0.1,2.9l-5.4,0.6l0.2,9.1c0,0.5,0.2,0.9,0.5,1.2c0.3,0.3,0.7,0.4,1.3,0.4c0.3,0,0.6-0.1,0.8-0.1c0.2-0.1,0.4-0.2,0.5-0.2
							c0.2-0.1,0.3-0.1,0.4-0.2c0.1-0.1,0.2-0.1,0.4-0.1c0.1,0,0.3,0,0.4,0.1c0.1,0.1,0.2,0.1,0.3,0.3l1.5,1.9
							c-0.7,0.5-1.5,1-2.5,1.3C161.2,64.9,160.2,65.1,159.3,65.1z"/>
					</g>
				</g>
			</g>
		</g>
		<path class="st121" d="M53.2,55.8c-0.1,4.2,0.1,8.8,0.9,13.5c0.7,4.6,1.8,9,3.2,12.9l1.4-0.8c-1.1-3-4.6-13.7-4.7-25.4L53.2,55.8z
			"/>
	</g>
</g>
<g id="Layer_2">
</g>
</svg>
